<svg width="1210" height="1104" viewBox="0 0 1210 1104" fill="none" xmlns="http://www.w3.org/2000/svg">
<path d="M676.453 104.875H652.484V128.844H676.453V104.875Z" fill="#FFC107"/>
<path d="M868.203 9H604.547V176.781H868.203V9ZM844.234 152.812H628.516V32.9688H844.234V152.812Z" fill="#006064"/>
<path d="M868.203 632.188C874.822 632.188 880.188 626.822 880.188 620.203C880.188 613.584 874.822 608.219 868.203 608.219C861.584 608.219 856.219 613.584 856.219 620.203C856.219 626.822 861.584 632.188 868.203 632.188Z" fill="#B2DFDB"/>
<path d="M724.391 104.875H700.422V128.844H724.391V104.875Z" fill="#F44336"/>
<path d="M688.438 512.344H616.531V536.312H688.438V512.344Z" fill="#B2DFDB"/>
<path d="M676.453 56.9375H652.484V80.9062H676.453V56.9375Z" fill="#F44336"/>
<path d="M724.391 56.9375H700.422V80.9062H724.391V56.9375Z" fill="#FF9800"/>
<path d="M532.641 56.9375H508.672V80.9062H532.641V56.9375Z" fill="#FF9800"/>
<path d="M388.828 104.875H364.859V128.844H388.828V104.875Z" fill="#FF9800"/>
<path d="M436.766 104.875H412.797V128.844H436.766V104.875Z" fill="#F44336"/>
<path d="M436.766 56.9375H412.797V80.9062H436.766V56.9375Z" fill="#FF5722"/>
<path d="M484.703 104.875H460.734V128.844H484.703V104.875Z" fill="#FFC107"/>
<path d="M484.703 56.9375H460.734V80.9062H484.703V56.9375Z" fill="#F44336"/>
<path d="M580.578 9H316.922V176.781H580.578V9ZM556.609 152.812H340.891V32.9688H556.609V152.812Z" fill="#006064"/>
<path d="M292.953 9H257V176.781H292.953V9Z" fill="#006064"/>
<path d="M388.828 56.9375H364.859V80.9062H388.828V56.9375Z" fill="#FFC107"/>
<path d="M868.203 536.312C874.822 536.312 880.188 530.947 880.188 524.328C880.188 517.709 874.822 512.344 868.203 512.344C861.584 512.344 856.219 517.709 856.219 524.328C856.219 530.947 861.584 536.312 868.203 536.312Z" fill="#B2DFDB"/>
<path d="M640.5 608.219H616.531V632.188H640.5V608.219Z" fill="#FFC107"/>
<path d="M736.375 608.219H712.406V632.188H736.375V608.219Z" fill="#FF5722"/>
<path d="M316.922 392.5H323.945L392.34 324.105L409.285 341.051L357.837 392.5H484.703C487.882 392.5 490.93 391.237 493.177 388.99C495.425 386.742 496.688 383.694 496.688 380.516V313.571L445.239 365.02L428.293 348.074L496.688 279.679V260.672C496.688 257.493 495.425 254.445 493.177 252.198C490.93 249.95 487.882 248.688 484.703 248.688H441.727L361.348 329.067L344.402 312.121L407.835 248.688H316.922C313.743 248.688 310.695 249.95 308.448 252.198C306.2 254.445 304.938 257.493 304.938 260.672V380.516C304.938 383.694 306.2 386.742 308.448 388.99C310.695 391.237 313.743 392.5 316.922 392.5ZM428.293 288.152L445.239 305.098L421.27 329.067L404.324 312.121L428.293 288.152Z" fill="#4DB6AC"/>
<path d="M700.422 392.5H743.398L823.777 312.121L840.723 329.067L777.29 392.5H868.203C871.382 392.5 874.43 391.237 876.677 388.99C878.925 386.742 880.188 383.694 880.188 380.516V260.672C880.188 257.493 878.925 254.445 876.677 252.198C874.43 249.95 871.382 248.688 868.203 248.688H861.18L780.801 329.067L763.855 312.121L827.288 248.688H700.422C697.243 248.688 694.195 249.95 691.948 252.198C689.7 254.445 688.438 257.493 688.438 260.672V380.516C688.438 383.694 689.7 386.742 691.948 388.99C694.195 391.237 697.243 392.5 700.422 392.5ZM751.871 324.105L768.817 341.051L744.848 365.02L727.902 348.074L751.871 324.105Z" fill="#4DB6AC"/>
<path d="M257 680.125H928.125V464.406H257V680.125ZM868.203 488.375C875.314 488.375 882.265 490.484 888.178 494.434C894.09 498.385 898.698 504 901.419 510.569C904.141 517.139 904.853 524.368 903.465 531.342C902.078 538.316 898.654 544.723 893.626 549.751C888.598 554.779 882.191 558.203 875.217 559.59C868.243 560.978 861.014 560.266 854.444 557.544C847.875 554.823 842.26 550.215 838.309 544.303C834.359 538.39 832.25 531.439 832.25 524.328C832.25 514.793 836.038 505.648 842.78 498.905C849.523 492.163 858.668 488.375 868.203 488.375ZM868.203 584.25C875.314 584.25 882.265 586.359 888.178 590.309C894.09 594.26 898.698 599.875 901.419 606.444C904.141 613.014 904.853 620.243 903.465 627.217C902.078 634.191 898.654 640.598 893.626 645.626C888.598 650.654 882.191 654.078 875.217 655.465C868.243 656.853 861.014 656.141 854.444 653.419C847.875 650.698 842.26 646.09 838.309 640.178C834.359 634.265 832.25 627.314 832.25 620.203C832.25 610.668 836.038 601.523 842.78 594.78C849.523 588.038 858.668 584.25 868.203 584.25ZM784.312 488.375H808.281V512.344H784.312V488.375ZM784.312 536.312H808.281V560.281H784.312V536.312ZM736.375 488.375H760.344V512.344H736.375V488.375ZM736.375 536.312H760.344V560.281H736.375V536.312ZM592.562 488.375H712.406V560.281H592.562V488.375ZM592.562 584.25H808.281V656.156H592.562V584.25ZM280.969 488.375H568.594V656.156H280.969V488.375Z" fill="#006064"/>
<path d="M928.125 9H892.172V176.781H928.125V9Z" fill="#006064"/>
<path d="M257 440.438H928.125V200.75H257V440.438ZM664.469 260.672C664.469 251.137 668.257 241.992 674.999 235.249C681.742 228.507 690.887 224.719 700.422 224.719H868.203C877.738 224.719 886.883 228.507 893.626 235.249C900.368 241.992 904.156 251.137 904.156 260.672V380.516C904.156 390.051 900.368 399.196 893.626 405.938C886.883 412.681 877.738 416.469 868.203 416.469H700.422C690.887 416.469 681.742 412.681 674.999 405.938C668.257 399.196 664.469 390.051 664.469 380.516V260.672ZM604.547 260.672C604.548 257.494 605.811 254.446 608.058 252.199L632.027 228.23L648.973 245.176L628.516 265.633V375.554L648.973 396.011L632.027 412.957L608.058 388.989C605.811 386.742 604.548 383.694 604.547 380.516V260.672ZM536.152 245.176L553.098 228.23L577.067 252.199C579.314 254.446 580.577 257.494 580.578 260.672V380.516C580.577 383.694 579.314 386.742 577.067 388.989L553.098 412.957L536.152 396.011L556.609 375.554V265.633L536.152 245.176ZM280.969 260.672C280.969 251.137 284.757 241.992 291.499 235.249C298.242 228.507 307.387 224.719 316.922 224.719H484.703C494.238 224.719 503.383 228.507 510.126 235.249C516.868 241.992 520.656 251.137 520.656 260.672V380.516C520.656 390.051 516.868 399.196 510.126 405.938C503.383 412.681 494.238 416.469 484.703 416.469H316.922C307.387 416.469 298.242 412.681 291.499 405.938C284.757 399.196 280.969 390.051 280.969 380.516V260.672Z" fill="#006064"/>
<path d="M688.438 608.219H664.469V632.188H688.438V608.219Z" fill="#FF9800"/>
<path d="M820.266 56.9375H796.297V80.9062H820.266V56.9375Z" fill="#FFC107"/>
<path d="M304.938 632.188H544.625V512.344H304.938V632.188ZM460.734 584.25H496.688V560.281H520.656V608.219H460.734V584.25ZM328.906 536.312H412.797V560.281H352.875V608.219H328.906V536.312Z" fill="#4DB6AC"/>
<path d="M772.328 56.9375H748.359V80.9062H772.328V56.9375Z" fill="#FF5722"/>
<path d="M772.328 104.875H748.359V128.844H772.328V104.875Z" fill="#FF9800"/>
<path d="M784.312 608.219H760.344V632.188H784.312V608.219Z" fill="#F44336"/>
<path d="M820.266 104.875H796.297V128.844H820.266V104.875Z" fill="#FF5722"/>
<path d="M532.641 104.875H508.672V128.844H532.641V104.875Z" fill="#FF5722"/>
<path d="M207.36 1032L207.072 911.04L147.744 1010.69H126.72L67.68 913.632V1032H23.904V830.4H62.496L137.952 955.68L212.256 830.4H250.56L251.136 1032H207.36ZM431.735 988.8H338.135L320.279 1032H272.47L362.327 830.4H408.407L498.551 1032H449.591L431.735 988.8ZM417.047 953.376L385.079 876.192L353.111 953.376H417.047ZM704.363 830.4V1032H666.059L565.547 909.6V1032H519.467V830.4H558.059L658.282 952.8V830.4H704.363ZM752.06 830.4H843.644C865.532 830.4 884.828 834.624 901.532 843.072C918.428 851.328 931.484 863.04 940.7 878.208C950.108 893.376 954.812 911.04 954.812 931.2C954.812 951.36 950.108 969.024 940.7 984.192C931.484 999.36 918.428 1011.17 901.532 1019.62C884.828 1027.87 865.532 1032 843.644 1032H752.06V830.4ZM841.34 993.696C861.5 993.696 877.532 988.128 889.436 976.992C901.532 965.664 907.58 950.4 907.58 931.2C907.58 912 901.532 896.832 889.436 885.696C877.532 874.368 861.5 868.704 841.34 868.704H798.716V993.696H841.34ZM1087.63 1035.46C1066.7 1035.46 1047.79 1030.94 1030.89 1021.92C1014.19 1012.9 1001.04 1000.51 991.438 984.768C982.03 968.832 977.326 950.976 977.326 931.2C977.326 911.424 982.03 893.664 991.438 877.92C1001.04 861.984 1014.19 849.504 1030.89 840.48C1047.79 831.456 1066.7 826.944 1087.63 826.944C1108.56 826.944 1127.37 831.456 1144.08 840.48C1160.78 849.504 1173.93 861.984 1183.53 877.92C1193.13 893.664 1197.93 911.424 1197.93 931.2C1197.93 950.976 1193.13 968.832 1183.53 984.768C1173.93 1000.51 1160.78 1012.9 1144.08 1021.92C1127.37 1030.94 1108.56 1035.46 1087.63 1035.46ZM1087.63 995.712C1099.53 995.712 1110.29 993.024 1119.89 987.648C1129.49 982.08 1136.97 974.4 1142.35 964.608C1147.92 954.816 1150.7 943.68 1150.7 931.2C1150.7 918.72 1147.92 907.584 1142.35 897.792C1136.97 888 1129.49 880.416 1119.89 875.04C1110.29 869.472 1099.53 866.688 1087.63 866.688C1075.73 866.688 1064.97 869.472 1055.37 875.04C1045.77 880.416 1038.19 888 1032.62 897.792C1027.25 907.584 1024.56 918.72 1024.56 931.2C1024.56 943.68 1027.25 954.816 1032.62 964.608C1038.19 974.4 1045.77 982.08 1055.37 987.648C1064.97 993.024 1075.73 995.712 1087.63 995.712Z" fill="#59A7A4"/>
</svg>
